<svg width="100" height="100" viewBox="0 0 100 100" fill="none" xmlns="http://www.w3.org/2000/svg">
<g filter="url(#filter0_g_5_199)">
<path d="M48.0713 11C61.5753 11.0002 72.9928 20.9642 76.7548 34.6671C77.3848 36.9622 78.2179 39.2044 79.2237 41.3613C87.0428 58.1294 80.175 77.8809 63.8838 85.4775C47.5927 93.0741 28.0476 85.6391 20.2286 68.8711C16.9323 61.8022 16.2471 54.2034 17.7769 47.2083C17.9714 46.3187 18.0713 45.4107 18.0713 44.5C18.0713 25.9985 31.5028 11 48.0713 11Z" fill="#FBDA9C"/>
</g>
<circle cx="37.5" cy="30.5" r="1.5" fill="#0A0A0A"/>
<circle cx="47.5" cy="30.5" r="1.5" fill="#0A0A0A"/>
<ellipse cx="27" cy="35.5" rx="5" ry="2.5" fill="#FFBEB1" fill-opacity="0.8"/>
<ellipse cx="59" cy="35.5" rx="5" ry="2.5" fill="#FFBEB1" fill-opacity="0.8"/>
<path d="M18.1667 44.8333C18.5 46.6667 38.9 51.4 40.5 53" stroke="#80DFBC" stroke-width="0.5" stroke-linecap="round"/>
<path d="M78 39.5C77.6667 41.3333 47.6 50.9 46 52.5" stroke="#80DFBC" stroke-width="0.5" stroke-linecap="round"/>
<g clip-path="url(#clip0_5_199)">
<rect x="40" y="52" width="6" height="7" fill="white"/>
<g filter="url(#filter1_g_5_199)">
<path d="M43.6064 53.5C44.9551 53.5 46.0951 54.4941 46.4727 55.8618C46.5365 56.0929 46.6203 56.3188 46.7216 56.5361C47.5035 58.2129 46.8174 60.1885 45.1884 60.9482C43.5593 61.7079 41.6041 60.9639 40.8222 59.2871C40.4933 58.5817 40.4249 57.8234 40.5768 57.1251C40.5965 57.0346 40.6064 56.9422 40.6064 56.8496C40.6066 54.9998 41.9498 53.5002 43.6064 53.5Z" fill="#FFE7BC"/>
</g>
<circle cx="42.5495" cy="55.45" r="0.15" fill="#0A0A0A"/>
<circle cx="43.5495" cy="55.45" r="0.15" fill="#0A0A0A"/>
<ellipse cx="41.4995" cy="55.95" rx="0.5" ry="0.25" fill="#FFBEB1" fill-opacity="0.8"/>
<ellipse cx="44.6995" cy="55.95" rx="0.5" ry="0.25" fill="#FFBEB1" fill-opacity="0.8"/>
<path d="M42.118 52.981V53.517C42.118 53.627 42.072 53.763 41.803 53.774C41.766 53.776 41.691 53.766 41.658 53.747C41.628 53.729 41.613 53.686 41.626 53.651C41.638 53.619 41.671 53.598 41.705 53.603C41.734 53.607 41.766 53.612 41.803 53.612C41.888 53.612 41.925 53.567 41.925 53.522V53.499C41.89 53.534 41.842 53.554 41.781 53.554C41.649 53.554 41.54 53.491 41.54 53.282V53.157C41.54 52.946 41.65 52.881 41.782 52.881C41.832 52.881 41.887 52.9 41.925 52.937C41.941 52.9 41.978 52.881 42.018 52.881C42.071 52.881 42.118 52.915 42.118 52.981ZM41.746 53.143V53.3C41.746 53.368 41.796 53.391 41.831 53.391C41.865 53.391 41.917 53.369 41.917 53.305V53.138C41.917 53.074 41.865 53.052 41.831 53.052C41.796 53.052 41.746 53.075 41.746 53.143ZM42.753 53.554H42.595L42.587 53.512C42.549 53.548 42.495 53.571 42.435 53.571H42.413C42.33 53.571 42.208 53.526 42.208 53.36C42.208 53.199 42.323 53.151 42.453 53.151H42.556C42.554 53.064 42.512 53.048 42.464 53.048C42.441 53.048 42.421 53.052 42.397 53.059C42.381 53.064 42.368 53.071 42.35 53.079C42.314 53.097 42.261 53.083 42.243 53.043C42.224 53.003 42.24 52.962 42.275 52.936C42.328 52.897 42.412 52.882 42.48 52.882C42.625 52.882 42.753 52.933 42.753 53.177V53.554ZM42.556 53.344V53.298H42.465C42.427 53.298 42.406 53.317 42.406 53.359C42.406 53.401 42.427 53.417 42.462 53.417H42.476C42.513 53.417 42.556 53.395 42.556 53.344ZM43.0607 53.554H42.8577V52.981C42.8577 52.915 42.9057 52.881 42.9587 52.881C42.9977 52.881 43.0347 52.9 43.0507 52.936C43.0887 52.9 43.1377 52.881 43.1907 52.881C43.2517 52.881 43.3107 52.901 43.3527 52.951C43.3937 52.908 43.4517 52.881 43.5327 52.881C43.6597 52.881 43.7707 52.946 43.7707 53.155V53.554H43.5647V53.143C43.5647 53.075 43.5217 53.052 43.4887 53.052C43.4557 53.052 43.4117 53.075 43.4117 53.143V53.554H43.2137V53.143C43.2137 53.075 43.1707 53.052 43.1377 53.052C43.1057 53.052 43.0607 53.074 43.0607 53.138V53.554ZM43.8773 52.753C43.8773 52.687 43.9253 52.661 43.9813 52.661C44.0373 52.661 44.0853 52.687 44.0853 52.753C44.0853 52.819 44.0373 52.845 43.9813 52.845C43.9253 52.845 43.8773 52.819 43.8773 52.753ZM44.0823 52.988V53.561C44.0823 53.694 44.0043 53.768 43.8773 53.768C43.8503 53.768 43.8323 53.766 43.8083 53.752C43.7813 53.736 43.7653 53.706 43.7723 53.665C43.7783 53.63 43.8073 53.605 43.8353 53.605C43.8393 53.605 43.8483 53.604 43.8523 53.603C43.8653 53.6 43.8803 53.59 43.8803 53.561V52.988C43.8803 52.919 43.9273 52.888 43.9813 52.888C44.0353 52.888 44.0823 52.919 44.0823 52.988ZM44.7256 53.554H44.5676L44.5596 53.512C44.5216 53.548 44.4676 53.571 44.4076 53.571H44.3856C44.3026 53.571 44.1806 53.526 44.1806 53.36C44.1806 53.199 44.2956 53.151 44.4256 53.151H44.5286C44.5266 53.064 44.4846 53.048 44.4366 53.048C44.4136 53.048 44.3936 53.052 44.3696 53.059C44.3536 53.064 44.3406 53.071 44.3226 53.079C44.2866 53.097 44.2336 53.083 44.2156 53.043C44.1966 53.003 44.2126 52.962 44.2476 52.936C44.3006 52.897 44.3846 52.882 44.4526 52.882C44.5976 52.882 44.7256 52.933 44.7256 53.177V53.554ZM44.5286 53.344V53.298H44.4376C44.3996 53.298 44.3786 53.317 44.3786 53.359C44.3786 53.401 44.3996 53.417 44.4346 53.417H44.4486C44.4856 53.417 44.5286 53.395 44.5286 53.344Z" fill="black"/>
<path d="M40.4339 56.9437C40.4674 57.128 42.736 57.6373 42.8968 57.7982" stroke="#80DFBC" stroke-width="0.0502647" stroke-linecap="round"/>
<path d="M46.6667 56.4412C46.6332 56.6255 43.6106 57.5872 43.4497 57.7481" stroke="#80DFBC" stroke-width="0.0502647" stroke-linecap="round"/>
<g clip-path="url(#clip1_5_199)">
<rect x="42.8465" y="57.6978" width="0.603176" height="0.703705" fill="white"/>
<g filter="url(#filter2_g_5_199)">
<path d="M43.2089 57.8484C43.3468 57.8484 43.4623 57.9519 43.4981 58.0931C43.5035 58.1144 43.5131 58.1341 43.5224 58.1541C43.6009 58.3226 43.5318 58.5211 43.3681 58.5974C43.2044 58.6737 43.0083 58.5989 42.9296 58.4304C42.8973 58.3611 42.8905 58.2869 42.9044 58.2181C42.9066 58.2073 42.9072 58.1963 42.9072 58.1853C42.9072 57.9994 43.0424 57.8485 43.2089 57.8484Z" fill="#FBDA9C"/>
</g>
<circle cx="43.1027" cy="58.0445" r="0.0150794" fill="#0A0A0A"/>
<circle cx="43.2033" cy="58.0445" r="0.0150794" fill="#0A0A0A"/>
<ellipse cx="42.9971" cy="58.0947" rx="0.0502647" ry="0.0251323" fill="#FFBEB1" fill-opacity="0.8"/>
<ellipse cx="43.3189" cy="58.0947" rx="0.0502647" ry="0.0251323" fill="#FFBEB1" fill-opacity="0.8"/>
</g>
</g>
<defs>
<filter id="filter0_g_5_199" x="14.0001" y="8" width="71.4528" height="83.4561" filterUnits="userSpaceOnUse" color-interpolation-filters="sRGB">
<feFlood flood-opacity="0" result="BackgroundImageFix"/>
<feBlend mode="normal" in="SourceGraphic" in2="BackgroundImageFix" result="shape"/>
<feTurbulence type="fractalNoise" baseFrequency="0.029999997466802597 0.029999997466802597" numOctaves="3" seed="8912" />
<feDisplacementMap in="shape" scale="6" xChannelSelector="R" yChannelSelector="G" result="displacedImage" width="100%" height="100%" />
<feMerge result="effect1_texture_5_199">
<feMergeNode in="displacedImage"/>
</feMerge>
</filter>
<filter id="filter1_g_5_199" x="40.1998" y="53.2" width="7.14483" height="8.34603" filterUnits="userSpaceOnUse" color-interpolation-filters="sRGB">
<feFlood flood-opacity="0" result="BackgroundImageFix"/>
<feBlend mode="normal" in="SourceGraphic" in2="BackgroundImageFix" result="shape"/>
<feTurbulence type="fractalNoise" baseFrequency="0.20000000298023224 0.20000000298023224" numOctaves="3" seed="8912" />
<feDisplacementMap in="shape" scale="0.60000002384185791" xChannelSelector="R" yChannelSelector="G" result="displacedImage" width="100%" height="100%" />
<feMerge result="effect1_texture_5_199">
<feMergeNode in="displacedImage"/>
</feMerge>
</filter>
<filter id="filter2_g_5_199" x="42.8674" y="57.8182" width="0.717514" height="0.839218" filterUnits="userSpaceOnUse" color-interpolation-filters="sRGB">
<feFlood flood-opacity="0" result="BackgroundImageFix"/>
<feBlend mode="normal" in="SourceGraphic" in2="BackgroundImageFix" result="shape"/>
<feTurbulence type="fractalNoise" baseFrequency="0.99900001287460327 0.99900001287460327" numOctaves="3" seed="8912" />
<feDisplacementMap in="shape" scale="0.060317613184452057" xChannelSelector="R" yChannelSelector="G" result="displacedImage" width="100%" height="100%" />
<feMerge result="effect1_texture_5_199">
<feMergeNode in="displacedImage"/>
</feMerge>
</filter>
<clipPath id="clip0_5_199">
<rect x="40" y="52" width="6" height="7" rx="0.666667" fill="white"/>
</clipPath>
<clipPath id="clip1_5_199">
<rect x="42.8465" y="57.6978" width="0.603176" height="0.703705" rx="0.100529" fill="white"/>
</clipPath>
</defs>
</svg>
