<svg width="100" height="100" viewBox="0 0 100 100" fill="none" xmlns="http://www.w3.org/2000/svg">
<g filter="url(#filter0_g_5_201)">
<path d="M48.0713 11C61.5753 11.0002 72.9927 20.9642 76.7547 34.6671C77.3848 36.9621 78.2178 39.2044 79.2236 41.3613C87.0427 58.1294 80.1749 77.8809 63.8838 85.4775C47.5927 93.0741 28.0475 85.6391 20.2285 68.8711C16.9323 61.8022 16.247 54.2034 17.7768 47.2083C17.9714 46.3187 18.0713 45.4107 18.0713 44.5C18.0713 25.9985 31.5027 11 48.0713 11Z" fill="#FBDA9C"/>
</g>
<circle cx="37.5" cy="30.5" r="1.5" fill="#0A0A0A"/>
<circle cx="47.5" cy="30.5" r="1.5" fill="#0A0A0A"/>
<path d="M66 13.5C62.5 12 58 9.6 60 8C62.5 6 66 12 66 13.5C68.3333 13.1667 73 13.4 73 17C73 21.5 65.5 15.5 66 13.5Z" fill="#7BAB61"/>
<path d="M62.5 18C64 15.5 66 13.5 66 13.5M66 13.5C62.5 12 58 9.6 60 8C62.5 6 66 12 66 13.5ZM66 13.5C68.3333 13.1667 73 13.4 73 17C73 21.5 65.5 15.5 66 13.5Z" stroke="#7BAB61" stroke-linecap="round"/>
<defs>
<filter id="filter0_g_5_201" x="14" y="8" width="71.4528" height="83.4561" filterUnits="userSpaceOnUse" color-interpolation-filters="sRGB">
<feFlood flood-opacity="0" result="BackgroundImageFix"/>
<feBlend mode="normal" in="SourceGraphic" in2="BackgroundImageFix" result="shape"/>
<feTurbulence type="fractalNoise" baseFrequency="0.019999999552965164 0.019999999552965164" numOctaves="3" seed="8912" />
<feDisplacementMap in="shape" scale="6" xChannelSelector="R" yChannelSelector="G" result="displacedImage" width="100%" height="100%" />
<feMerge result="effect1_texture_5_201">
<feMergeNode in="displacedImage"/>
</feMerge>
</filter>
</defs>
</svg>
