<svg width="100" height="100" viewBox="0 0 100 100" fill="none" xmlns="http://www.w3.org/2000/svg">
<g filter="url(#filter0_g_5_202)">
<path d="M48.0713 11C61.5753 11.0002 72.9927 20.9642 76.7547 34.6671C77.3848 36.9621 78.2178 39.2044 79.2236 41.3613C87.0427 58.1294 80.1749 77.8809 63.8838 85.4775C47.5927 93.0741 28.0475 85.6391 20.2285 68.8711C16.9323 61.8022 16.247 54.2034 17.7768 47.2083C17.9714 46.3187 18.0713 45.4107 18.0713 44.5C18.0713 25.9985 31.5027 11 48.0713 11Z" fill="#FBDA9C"/>
</g>
<circle cx="37.5" cy="30.5" r="1.5" fill="#0A0A0A"/>
<circle cx="47.5" cy="30.5" r="1.5" fill="#0A0A0A"/>
<ellipse cx="27" cy="35.5" rx="5" ry="2.5" fill="#FFBEB1" fill-opacity="0.8"/>
<ellipse cx="59" cy="35.5" rx="5" ry="2.5" fill="#FFBEB1" fill-opacity="0.8"/>
<path d="M16.8896 17.2601C16.9201 17.0495 17.2239 17.0495 17.2544 17.2601L17.643 19.9445C17.6526 20.0105 17.697 20.0662 17.7593 20.0901L19.6967 20.8353C19.8543 20.8959 19.8543 21.1188 19.6967 21.1794L17.7593 21.9246C17.697 21.9485 17.6526 22.0042 17.643 22.0702L17.2544 24.7546C17.2239 24.9652 16.9201 24.9652 16.8896 24.7546L16.501 22.0702C16.4914 22.0042 16.447 21.9485 16.3847 21.9246L14.4473 21.1794C14.2897 21.1188 14.2897 20.8959 14.4473 20.8353L16.3847 20.0901C16.447 20.0662 16.4914 20.0105 16.501 19.9445L16.8896 17.2601Z" fill="#FFE1AE"/>
<path d="M10.8896 23.2601C10.9201 23.0495 11.2239 23.0495 11.2544 23.2601L11.643 25.9445C11.6526 26.0105 11.697 26.0662 11.7593 26.0901L13.6967 26.8353C13.8543 26.8959 13.8543 27.1188 13.6967 27.1794L11.7593 27.9246C11.697 27.9485 11.6526 28.0042 11.643 28.0702L11.2544 30.7546C11.2239 30.9652 10.9201 30.9652 10.8896 30.7546L10.501 28.0702C10.4914 28.0042 10.447 27.9485 10.3847 27.9246L8.44727 27.1794C8.28973 27.1188 8.28973 26.8959 8.44727 26.8353L10.3847 26.0901C10.447 26.0662 10.4914 26.0105 10.501 25.9445L10.8896 23.2601Z" fill="#FFE1AE"/>
<defs>
<filter id="filter0_g_5_202" x="14" y="8" width="71.4528" height="83.4561" filterUnits="userSpaceOnUse" color-interpolation-filters="sRGB">
<feFlood flood-opacity="0" result="BackgroundImageFix"/>
<feBlend mode="normal" in="SourceGraphic" in2="BackgroundImageFix" result="shape"/>
<feTurbulence type="fractalNoise" baseFrequency="0.019999999552965164 0.019999999552965164" numOctaves="3" seed="8912" />
<feDisplacementMap in="shape" scale="6" xChannelSelector="R" yChannelSelector="G" result="displacedImage" width="100%" height="100%" />
<feMerge result="effect1_texture_5_202">
<feMergeNode in="displacedImage"/>
</feMerge>
</filter>
</defs>
</svg>
