<svg width="25" height="25" viewBox="0 0 25 25" fill="none" xmlns="http://www.w3.org/2000/svg">
<circle cx="12.5" cy="12.5" r="11.5" fill="#E05A40" stroke="white" stroke-width="2"/>
<path d="M8.72656 18.5117C8.58984 18.4102 8.50586 18.2734 8.47461 18.1016C8.44727 17.9336 8.47266 17.7344 8.55078 17.5039L9.75781 13.9238L6.68164 11.7148C6.48242 11.5742 6.34375 11.4277 6.26562 11.2754C6.1875 11.1191 6.17578 10.959 6.23047 10.7949C6.28516 10.6348 6.38867 10.5156 6.54102 10.4375C6.69336 10.3594 6.89258 10.3203 7.13867 10.3203H10.9062L12.0547 6.74609C12.1289 6.51172 12.2266 6.33398 12.3477 6.21289C12.4727 6.08789 12.6191 6.02539 12.7871 6.02539C12.959 6.02539 13.1055 6.08789 13.2266 6.21289C13.3516 6.33398 13.4512 6.51172 13.5254 6.74609L14.6738 10.3203H18.4414C18.6875 10.3203 18.8867 10.3594 19.0391 10.4375C19.1914 10.5156 19.2949 10.6348 19.3496 10.7949C19.4043 10.959 19.3926 11.1191 19.3145 11.2754C19.2363 11.4277 19.0977 11.5742 18.8984 11.7148L15.8223 13.9238L17.0293 17.5039C17.1074 17.7344 17.1309 17.9336 17.0996 18.1016C17.0723 18.2734 16.9902 18.4102 16.8535 18.5117C16.7168 18.6211 16.5625 18.6602 16.3906 18.6289C16.2188 18.5977 16.0352 18.5117 15.8398 18.3711L12.7871 16.127L9.74023 18.3711C9.54492 18.5117 9.36133 18.5977 9.18945 18.6289C9.01758 18.6602 8.86328 18.6211 8.72656 18.5117Z" fill="white"/>
</svg>
